<?xml version="1.0" encoding="UTF-8"?>
<svg id="_レイヤー_1" data-name="レイヤー 1" xmlns="http://www.w3.org/2000/svg" xmlns:xlink="http://www.w3.org/1999/xlink" viewBox="0 0 128.71 119.34">
  <defs>
    <style>
      .cls-1 {
        letter-spacing: .25em;
      }

      .cls-2 {
        fill: none;
        stroke: url(#_名称未設定グラデーション_112);
        stroke-linecap: round;
        stroke-miterlimit: 10;
        stroke-width: 7px;
      }

      .cls-3 {
        font-family: Meiryo-Bold, Meiryo;
        font-size: 7px;
        font-weight: 700;
      }

      .cls-3, .cls-4 {
        fill: #003b3f;
      }
    </style>
    <linearGradient id="_名称未設定グラデーション_112" data-name="名称未設定グラデーション 112" x1="11.91" y1="59.67" x2="127.75" y2="59.67" gradientUnits="userSpaceOnUse">
      <stop offset="0" stop-color="#003b3f"/>
      <stop offset="1" stop-color="#3fffec"/>
    </linearGradient>
  </defs>
  <path class="cls-2" d="M15.41,40.12C23.35,18.74,43.93,3.5,68.08,3.5c31.02,0,56.17,25.15,56.17,56.17s-25.15,56.17-56.17,56.17c-23.97,0-44.43-15.01-52.5-36.15"/>
  <g>
    <path class="cls-4" d="M32.49,69.33v-19.8h4.83v19.8h-4.83ZM33.36,69.33v-4.05h11.94v4.05h-11.94Z"/>
    <path class="cls-4" d="M56.28,69.75c-1.42,0-2.71-.22-3.87-.66s-2.15-1.09-2.97-1.95c-.82-.86-1.46-1.92-1.91-3.19-.45-1.27-.67-2.75-.67-4.43,0-2.36.42-4.31,1.25-5.83s1.97-2.67,3.42-3.44c1.45-.76,3.09-1.14,4.94-1.14,1.42,0,2.7.22,3.85.66,1.15.44,2.14,1.09,2.97,1.95s1.46,1.94,1.91,3.23c.44,1.29.66,2.77.66,4.45s-.23,3.26-.69,4.55c-.46,1.29-1.11,2.37-1.96,3.22-.85.86-1.86,1.5-3.03,1.94-1.17.43-2.47.64-3.89.64ZM56.43,65.94c.98,0,1.8-.24,2.46-.72.66-.48,1.16-1.18,1.5-2.12.34-.93.51-2.06.51-3.4,0-1.44-.17-2.65-.52-3.63-.35-.98-.87-1.73-1.54-2.24-.68-.51-1.52-.76-2.52-.76-.94,0-1.75.25-2.42.73-.67.49-1.18,1.21-1.53,2.16-.35.95-.52,2.12-.52,3.5,0,1.04.1,1.97.3,2.77.2.81.5,1.49.88,2.03.39.54.88.96,1.46,1.25s1.23.43,1.95.43Z"/>
    <path class="cls-4" d="M67.53,69.33l6.69-19.8h6.99l6.72,19.8h-5.28l-4.71-15.99h-.42l-4.74,15.99h-5.25ZM71.46,65.64v-3.27h13.2v3.27h-13.2Z"/>
    <path class="cls-4" d="M90.27,69.33v-19.8h4.83v19.8h-4.83ZM92.52,69.33v-3.93h5.64c1.02,0,1.88-.21,2.56-.63.69-.42,1.22-1.06,1.58-1.93.36-.87.54-1.98.54-3.35,0-1.06-.11-1.97-.33-2.73s-.55-1.38-.99-1.88c-.44-.49-.99-.85-1.65-1.08s-1.43-.35-2.31-.35h-5.04v-3.93h4.86c2.44,0,4.43.39,5.99,1.17,1.55.78,2.69,1.9,3.42,3.34.73,1.45,1.09,3.19,1.09,5.21,0,1.56-.19,2.91-.57,4.05s-.89,2.1-1.53,2.87c-.64.77-1.37,1.39-2.19,1.86s-1.68.8-2.59,1-1.81.3-2.69.3h-5.79Z"/>
  </g>
  <g>
    <path class="cls-4" d="M56.23,93.56c-1.37,0-2.59-.12-3.69-.38-1.09-.25-2.03-.63-2.82-1.14-.79-.51-1.4-1.14-1.84-1.91-.44-.76-.7-1.64-.79-2.64l4.47-1.38c.06.84.31,1.54.74,2.1.43.56,1.01.97,1.75,1.25.73.27,1.55.41,2.46.41.84,0,1.55-.1,2.14-.3.59-.2,1.03-.46,1.34-.78.3-.32.46-.67.46-1.05,0-.44-.2-.8-.6-1.09s-.94-.54-1.64-.75c-.69-.21-1.49-.42-2.39-.64-1.03-.24-2.04-.5-3.04-.78s-1.9-.65-2.69-1.09c-.8-.45-1.44-1.03-1.92-1.73-.48-.7-.72-1.59-.72-2.67,0-1.24.33-2.31.98-3.21.65-.9,1.61-1.6,2.88-2.1s2.81-.75,4.61-.75,3.32.25,4.6.75c1.28.5,2.27,1.21,2.96,2.11.69.91,1.06,1.98,1.1,3.2l-4.57,1.17c0-.58-.09-1.09-.28-1.53-.19-.44-.46-.81-.8-1.11-.35-.3-.78-.53-1.29-.67-.51-.15-1.11-.23-1.78-.23-.78,0-1.43.09-1.97.27-.54.18-.94.41-1.21.69-.27.28-.41.61-.41.99,0,.48.21.87.63,1.17.42.3,1,.55,1.73.77.73.21,1.54.42,2.43.64.9.18,1.84.41,2.8.67.97.27,1.86.63,2.69,1.08.83.45,1.5,1.05,2,1.8s.76,1.7.76,2.83c0,1.22-.34,2.29-1.02,3.2s-1.7,1.61-3.06,2.1c-1.35.49-3.02.74-4.99.74Z"/>
    <path class="cls-4" d="M68.45,93.14v-19.8h5.07v8.64c1.03-.42,1.97-.96,2.83-1.6.86-.65,1.62-1.37,2.28-2.15.66-.78,1.22-1.58,1.67-2.42.45-.83.78-1.65.99-2.47h5.83c-.25.96-.66,1.92-1.21,2.87-.56.95-1.23,1.86-2.02,2.73-.79.87-1.64,1.65-2.57,2.33-.92.68-1.87,1.22-2.83,1.62v.42c1.01-.02,1.89.08,2.65.29s1.42.53,1.98.96c.57.43,1.06.96,1.48,1.58s.79,1.35,1.1,2.19l1.76,4.83h-5.73l-1.2-3.99c-.23-.86-.56-1.54-.98-2.04-.42-.5-.97-.86-1.64-1.09-.67-.23-1.53-.34-2.58-.34h-1.83v7.47h-5.07Z"/>
    <path class="cls-4" d="M90.12,93.14v-19.8h5.17v19.8h-5.17Z"/>
    <path class="cls-4" d="M99.42,93.14v-19.8h5.07v19.8h-5.07ZM100.33,93.14v-4.05h12.54v4.05h-12.54Z"/>
    <path class="cls-4" d="M115.26,93.14v-19.8h5.07v19.8h-5.07ZM116.17,93.14v-4.05h12.54v4.05h-12.54Z"/>
  </g>
  <g>
    <path class="cls-4" d="M28.62,61.98l-.02.1c-.03.19-.22.32-.41.28-.19-.03-.32-.22-.28-.41,0,0,0,0,0-.01h0s.02-.1.02-.1c.04-.19.23-.31.42-.27.18.04.3.22.27.41Z"/>
    <path class="cls-4" d="M23.93,70.24l-.08.07c-.35.31-.87.27-1.18-.07-.31-.35-.27-.87.07-1.18.03-.03.07-.06.11-.08l.11-.07.08-.05c.38-.24.89-.12,1.13.26.21.34.14.78-.15,1.04l-.09.08Z"/>
    <path class="cls-4" d="M13.76,74.07h-.14c-1.12-.05-1.98-.99-1.94-2.1s.98-1.98,2.1-1.94c.14,0,.27.02.4.06l.39.1.1.02c1.06.26,1.7,1.33,1.43,2.39-.23.92-1.07,1.53-1.99,1.49h-.36Z"/>
    <path class="cls-4" d="M2.59,68.34l-.09-.12c-1.05-1.38-.78-3.34.6-4.39,1.38-1.05,3.34-.78,4.39.6.08.1.15.21.21.32l.19.33.05.08c.85,1.48.34,3.38-1.14,4.23-1.37.79-3.08.41-4.01-.81l-.19-.24Z"/>
    <path class="cls-4" d="M.14,55.06l.05-.15c.54-1.85,2.47-2.9,4.32-2.36,1.82.53,2.87,2.41,2.39,4.23v.02s-.03.09-.03.09v.05c-.51,1.86-2.41,2.97-4.27,2.48-1.86-.49-2.97-2.4-2.48-4.26,0-.02.02-.06.02-.09Z"/>
    <path class="cls-4" d="M9.12,45.09l.14-.05.35-.13c1.52-.56,3.2.22,3.76,1.73.51,1.37-.08,2.88-1.32,3.57l-.08.05-.37.21c-1.43.8-3.24.29-4.04-1.14-.8-1.43-.29-3.24,1.14-4.04.13-.07.28-.14.42-.19Z"/>
    <path class="cls-4" d="M21.37,45.95l.12.06.28.16c.84.46,1.14,1.52.68,2.35-.4.73-1.25,1.05-2.01.82l-.09-.03-.34-.1c-.94-.28-1.47-1.27-1.19-2.22.28-.94,1.27-1.47,2.22-1.19.12.04.24.09.35.15Z"/>
    <path class="cls-4" d="M28.1,54.1l.03.1.03.09c.11.35-.08.73-.43.84-.31.1-.65-.05-.79-.33l-.04-.08-.05-.1c-.17-.34-.04-.75.29-.92.34-.17.75-.04.92.29.02.03.03.07.04.11Z"/>
  </g>
  <text class="cls-3" transform="translate(39.43 33.94)"><tspan x="0" y="0">WE</tspan><tspan class="cls-1" x="11.93" y="0">B</tspan><tspan x="18.8" y="0">開発スクール</tspan></text>
</svg>