<?xml version="1.0" encoding="UTF-8"?>
<svg id="_レイヤー_1" data-name="レイヤー 1" xmlns="http://www.w3.org/2000/svg" xmlns:xlink="http://www.w3.org/1999/xlink" viewBox="0 0 350.67 73.55">
  <defs>
    <style>
      .cls-1 {
        font-family: Meiryo-Bold, Meiryo;
        font-size: 18px;
        font-weight: 700;
      }

      .cls-1, .cls-2 {
        fill: #003b3f;
      }

      .cls-3 {
        opacity: .8;
      }

      .cls-4 {
        fill: url(#_名称未設定グラデーション_130);
      }

      .cls-5 {
        fill: url(#_名称未設定グラデーション_591);
      }

      .cls-6 {
        fill: url(#_名称未設定グラデーション_595);
      }
    </style>
    <linearGradient id="_名称未設定グラデーション_591" data-name="名称未設定グラデーション 591" x1="35.69" y1="72.08" x2="35.69" y2="34.93" gradientTransform="translate(-1.05 -10.06) rotate(-4.37) scale(1.19 1.18) skewX(-7.36)" gradientUnits="userSpaceOnUse">
      <stop offset="0" stop-color="#003b3f"/>
      <stop offset=".07" stop-color="#003e41"/>
      <stop offset=".12" stop-color="#04474a"/>
      <stop offset=".17" stop-color="#095858"/>
      <stop offset=".21" stop-color="#106f6d"/>
      <stop offset=".25" stop-color="#1a8d87"/>
      <stop offset=".29" stop-color="#26b1a8"/>
      <stop offset=".33" stop-color="#34dccd"/>
      <stop offset=".34" stop-color="#37e6d6"/>
      <stop offset=".55" stop-color="#37e7d7" stop-opacity=".64"/>
      <stop offset=".78" stop-color="#3fffec" stop-opacity="0"/>
    </linearGradient>
    <linearGradient id="_名称未設定グラデーション_595" data-name="名称未設定グラデーション 595" x1="37.08" y1="73.52" x2="37.08" y2="36.36" gradientTransform="translate(-1.05 -10.06) rotate(-4.37) scale(1.19 1.18) skewX(-7.36)" gradientUnits="userSpaceOnUse">
      <stop offset="0" stop-color="#003b3f"/>
      <stop offset=".07" stop-color="#003e41"/>
      <stop offset=".12" stop-color="#04474a"/>
      <stop offset=".17" stop-color="#095858"/>
      <stop offset=".21" stop-color="#106f6d"/>
      <stop offset=".25" stop-color="#1a8d87"/>
      <stop offset=".29" stop-color="#26b1a8"/>
      <stop offset=".33" stop-color="#34dccd"/>
      <stop offset=".34" stop-color="#37e6d6"/>
      <stop offset=".48" stop-color="#37e7d7" stop-opacity=".64"/>
      <stop offset=".74" stop-color="#3fffec" stop-opacity="0"/>
    </linearGradient>
    <linearGradient id="_名称未設定グラデーション_130" data-name="名称未設定グラデーション 130" x1="40.27" y1="75.63" x2="40.27" y2="-1.35" gradientUnits="userSpaceOnUse">
      <stop offset="0" stop-color="#003b3f"/>
      <stop offset=".06" stop-color="#095758"/>
      <stop offset=".18" stop-color="#17837f"/>
      <stop offset=".29" stop-color="#23a9a0"/>
      <stop offset=".42" stop-color="#2dc8bc"/>
      <stop offset=".54" stop-color="#35e0d1"/>
      <stop offset=".67" stop-color="#3af1e0"/>
      <stop offset=".82" stop-color="#3dfbe9"/>
      <stop offset="1" stop-color="#3fffec"/>
    </linearGradient>
  </defs>
  <path class="cls-5" d="M76.55,32.83l1.07,1.08-38.05,37.99L0,32.27l1.29-1.29,38.49,38.56,36.77-36.7Z"/>
  <path class="cls-6" d="M78.11,34.4l1.07,1.08-38.05,37.99L1.57,33.84l1.29-1.29,38.49,38.55,36.77-36.7Z"/>
  <g class="cls-3">
    <path class="cls-2" d="M55.13,42.9c.05,5.52-4.78,9.4-13.97,9.48-6.56.06-11.92-1.9-15.92-5.5l3.37-4.39c3.22,3.13,7.34,4.58,12.65,4.53,5.26-.04,7.93-1.15,7.91-3.47-.02-2.32-2.69-2.94-8.67-3.45-7.42-.62-14.33-2.32-14.38-8.32-.05-5.84,5.71-9.09,13.72-9.16,5.67-.05,10.58,1.43,13.9,4.16l-3.23,4.47c-2.88-2.33-6.41-3.27-10.63-3.27-3.52,0-7.82.71-7.8,3.27.02,2.4,3.73,2.61,8.89,3,8.27.65,14.11,2.48,14.16,8.64Z"/>
  </g>
  <path class="cls-4" d="M76.27,44.04c-1.78,8.99-7.08,17.23-14.66,22.62-7.52,5.45-17.34,7.92-26.88,6.47-4.75-.73-9.42-2.38-13.61-4.94-4.17-2.57-7.89-5.98-10.78-10.03-2.88-4.05-4.94-8.72-5.99-13.64-1.06-4.91-1.06-10.06-.09-14.99,1.01-4.92,3-9.67,5.88-13.79,2.86-4.13,6.57-7.64,10.8-10.27C25.16,2.86,29.91,1.17,34.76.41c4.85-.74,9.81-.45,14.47.72,9.35,2.36,17.45,8.45,22.28,16.38,4.9,7.91,6.6,17.56,4.76,26.54ZM76.27,44.04c.88-4.49.88-9.16-.09-13.62-.96-4.46-2.84-8.71-5.47-12.38-2.64-3.68-6.03-6.75-9.82-9.06-3.81-2.3-8.04-3.77-12.35-4.41-8.65-1.26-17.47,1.02-24.25,5.96-6.82,4.89-11.56,12.29-13.17,20.39-1.65,8.09-.16,16.75,4.24,23.91,4.33,7.18,11.6,12.7,20.06,14.89,4.22,1.08,8.7,1.36,13.1.71,4.39-.67,8.71-2.19,12.56-4.56,3.85-2.37,7.23-5.56,9.83-9.3,2.62-3.74,4.43-8.04,5.36-12.53Z"/>
  <text class="cls-1" transform="translate(155.99 24.33)"><tspan x="0" y="0">開発スクール</tspan></text>
  <g>
    <path class="cls-2" d="M126.14,12.09l-4.59,12.6h-3.65l-2.94-8.77-2.95,8.77h-3.62l-4.61-12.6h3.76l2.75,8.66,3.01-8.66h3.38l3.01,8.66,2.75-8.66h3.69Z"/>
    <path class="cls-2" d="M133.86,22.59c1.58,0,2.54-.38,3.53-1.13l1.8,1.89c-1.42,1.26-3.26,1.76-5.53,1.76-4.23,0-6.7-2.05-6.7-5.4s2.43-5.4,6.43-5.4c3.6,0,6.16,1.8,6.16,5.33,0,.4-.02.63-.09.83h-9.11c.29,1.51,1.49,2.12,3.51,2.12ZM130.44,18.55l5.83-.04c-.38-1.17-1.33-1.73-2.84-1.73s-2.59.56-2.99,1.76Z"/>
    <path class="cls-2" d="M154.34,19.71c0,3.29-2.16,5.37-5.29,5.37-1.82,0-3.22-.72-4.1-1.84v1.46h-3.55v-13.32h3.55v4.81c.88-1.12,2.29-1.82,4.1-1.82,3.13,0,5.29,2.05,5.29,5.35ZM150.98,19.71c0-1.66-1.04-2.63-2.92-2.63-1.21,0-2.3.4-3.1,1.42v2.41c.79,1.03,1.89,1.42,3.1,1.42,1.87,0,2.92-.95,2.92-2.63Z"/>
  </g>
  <g>
    <path class="cls-2" d="M124.31,61.21v4.97h-21.86v-25.2h5.34v20.23h16.52Z"/>
    <path class="cls-2" d="M126.55,53.58c0-8.42,5.74-13.39,14.85-13.39s14.85,4.97,14.85,13.39-5.74,13.39-14.85,13.39-14.85-4.97-14.85-13.39ZM150.81,53.58c0-5.4-3.64-8.42-9.41-8.42s-9.41,3.02-9.41,8.42,3.6,8.42,9.41,8.42,9.41-3.02,9.41-8.42Z"/>
    <path class="cls-2" d="M180.3,60.85h-14.12l-2.5,5.33h-5.71l12.38-25.2h5.84l12.38,25.2h-5.77l-2.5-5.33ZM178.07,56.17l-4.84-10.26-4.84,10.26h9.68Z"/>
    <path class="cls-2" d="M218.61,53.58c0,7.85-5.64,12.6-14.45,12.6h-12.41v-25.2h12.41c8.81,0,14.45,4.75,14.45,12.6ZM213.17,53.58c0-5.18-3.8-7.7-9.41-7.7h-6.67v15.41h6.67c5.61,0,9.41-2.52,9.41-7.7Z"/>
    <path class="cls-2" d="M257.41,58.55c0,4.97-4.37,8.42-12.65,8.42-5.91,0-10.71-1.8-14.28-5.08l3.07-3.92c2.87,2.84,6.57,4.18,11.35,4.18s7.14-.97,7.14-3.06-2.4-2.66-7.78-3.17c-6.67-.61-12.88-2.2-12.88-7.59s5.21-8.14,12.41-8.14c5.11,0,9.51,1.37,12.48,3.85l-2.94,4c-2.57-2.12-5.74-2.99-9.54-3.02-3.17-.04-7.04.58-7.04,2.88,0,2.16,3.34,2.38,7.98,2.77,7.44.65,12.68,2.34,12.68,7.88Z"/>
    <path class="cls-2" d="M282.2,66.18l-9.01-11.84-6.11,5.58v6.26h-5.34v-25.2h5.34v12.78l13.88-12.78h7.01l-10.88,9.93,11.51,15.26h-6.41Z"/>
    <path class="cls-2" d="M291.61,66.18v-25.2h5.34v25.2h-5.34Z"/>
    <path class="cls-2" d="M325.08,61.21v4.97h-21.86v-25.2h5.34v20.23h16.52Z"/>
    <path class="cls-2" d="M350.67,61.21v4.97h-21.86v-25.2h5.34v20.23h16.52Z"/>
  </g>
</svg>