<?xml version="1.0" encoding="UTF-8"?>
<svg id="_レイヤー_1" data-name="レイヤー 1" xmlns="http://www.w3.org/2000/svg" xmlns:xlink="http://www.w3.org/1999/xlink" viewBox="0 0 350.6738281 73.5453756">
  <defs>
    <style>
      .cls-1 {
        opacity: .8;
      }

      .cls-2 {
        fill: url(#_名称未設定グラデーション_130);
      }

      .cls-3 {
        fill: #003b3f;
      }

      .cls-4 {
        fill: url(#_名称未設定グラデーション_591);
      }

      .cls-5 {
        fill: url(#_名称未設定グラデーション_595);
      }
    </style>
    <linearGradient id="_名称未設定グラデーション_591" data-name="名称未設定グラデーション 591" x1="35.6850996" y1="72.0585391" x2="35.6850996" y2="34.9021336" gradientTransform="translate(-1.0555173 -10.060145) rotate(-4.3715797) scale(1.1903999 1.1766186) skewX(-7.3613614)" gradientUnits="userSpaceOnUse">
      <stop offset="0" stop-color="#003b3f"/>
      <stop offset=".0674151" stop-color="#003e41"/>
      <stop offset=".119199" stop-color="#04474a"/>
      <stop offset=".1657784" stop-color="#095858"/>
      <stop offset=".2093015" stop-color="#106f6d"/>
      <stop offset=".2507068" stop-color="#1a8d87"/>
      <stop offset=".2905014" stop-color="#26b1a8"/>
      <stop offset=".3283235" stop-color="#34dccd"/>
      <stop offset=".3357544" stop-color="#37e6d6"/>
      <stop offset=".5502794" stop-color="#37e7d7" stop-opacity=".643654"/>
      <stop offset=".7765367" stop-color="#3fffec" stop-opacity="0"/>
    </linearGradient>
    <linearGradient id="_名称未設定グラデーション_595" data-name="名称未設定グラデーション 595" x1="37.0837891" y1="73.4925433" x2="37.0837891" y2="36.3365516" gradientTransform="translate(-1.0555173 -10.060145) rotate(-4.3715797) scale(1.1903999 1.1766186) skewX(-7.3613614)" gradientUnits="userSpaceOnUse">
      <stop offset="0" stop-color="#003b3f"/>
      <stop offset=".0674151" stop-color="#003e41"/>
      <stop offset=".119199" stop-color="#04474a"/>
      <stop offset=".1657784" stop-color="#095858"/>
      <stop offset=".2093015" stop-color="#106f6d"/>
      <stop offset=".2507068" stop-color="#1a8d87"/>
      <stop offset=".2905014" stop-color="#26b1a8"/>
      <stop offset=".3283235" stop-color="#34dccd"/>
      <stop offset=".3357544" stop-color="#37e6d6"/>
      <stop offset=".4832402" stop-color="#37e7d7" stop-opacity=".643654"/>
      <stop offset=".7363134" stop-color="#3fffec" stop-opacity="0"/>
    </linearGradient>
    <linearGradient id="_名称未設定グラデーション_130" data-name="名称未設定グラデーション 130" x1="40.2702666" y1="75.6267376" x2="40.2702666" y2="-1.3462515" gradientUnits="userSpaceOnUse">
      <stop offset=".0000001" stop-color="#003b3f"/>
      <stop offset=".0644627" stop-color="#095758"/>
      <stop offset=".1766071" stop-color="#17837f"/>
      <stop offset=".2939365" stop-color="#23a9a0"/>
      <stop offset=".4151146" stop-color="#2dc8bc"/>
      <stop offset=".541299" stop-color="#35e0d1"/>
      <stop offset=".6746997" stop-color="#3af1e0"/>
      <stop offset=".8200974" stop-color="#3dfbe9"/>
      <stop offset=".9999998" stop-color="#3fffec"/>
    </linearGradient>
  </defs>
  <path class="cls-4" d="M76.5463867,32.7984306l1.0742188,1.0761719-38.0546875,37.9926758L0,32.234954l1.2900391-1.2880859,38.4916992,38.5561523,36.7646484-36.7045898Z"/>
  <path class="cls-5" d="M78.1152344,34.3711845l1.0742188,1.0761719-38.0546875,37.9921875L1.5688477,33.807708l1.2900391-1.2880859,38.4916992,38.5556641,36.7646484-36.7041016Z"/>
  <g class="cls-1">
    <path class="cls-3" d="M55.1313477,42.9004814c.046875,5.5185547-4.777832,9.4003906-13.9731445,9.4785156-6.5629883.0556641-11.9189453-1.8984375-15.9169922-5.5039062l3.3740234-4.3876953c3.215332,3.1318359,7.34375,4.5761719,12.6459961,4.53125,5.2646484-.0449219,7.925293-1.1474609,7.9052734-3.4677734-.0195312-2.3193359-2.6948242-2.9355469-8.6689453-3.4453125-7.4213867-.6166992-14.3330078-2.3173828-14.3837891-8.315918-.0498047-5.8388672,5.7070312-9.0874023,13.7158203-9.1557617,5.6728516-.0483398,10.5795898,1.4296875,13.9038086,4.1611328l-3.2255859,4.4667969c-2.875-2.3349609-6.4057617-3.2651367-10.6328125-3.269043-3.5224609-.0097656-7.8178711.7070312-7.7963867,3.2666016.0205078,2.3994141,3.7304688,2.6074219,8.8881836,3.003418,8.2744141.6499023,14.1118164,2.4790039,14.1645508,8.6376953Z"/>
  </g>
  <path class="cls-2" d="M76.2732315,44.0423729c-1.7800217,8.9933319-7.0795822,17.2343597-14.6605911,22.6233292-7.5240097,5.4468613-17.3429718,7.9194489-26.8770523,6.4732513-4.7506714-.7273407-9.4245796-2.379982-13.613369-4.9360199-4.172184-2.5704041-7.8886948-5.975502-10.7777939-10.0274582-2.8837757-4.0521088-4.9449539-8.7241631-5.9922085-13.637661-1.0569839-4.913662-1.0640411-10.0560646-.0924606-14.989975,1.0114918-4.9249058,3.0003395-9.6691589,5.8770256-13.7920036,2.8616161-4.1301708,6.5715389-7.6446867,10.7996616-10.2667942C25.1652336,2.8605358,29.9172058,1.1652552,34.7602692.4078376c4.8532944-.7427773,9.8064117-.4516578,14.4702072.7159004,9.3549271,2.3591552,17.4532547,8.4451652,22.2810135,16.3819222,4.9033279,7.9057674,6.5991821,17.555069,4.7617416,26.5367126ZM76.2732315,44.0423729c.8794022-4.4938889.8751373-9.1618881-.0931931-13.6240768-.955658-4.4615364-2.839447-8.7051086-5.4717712-12.3785744-2.635849-3.6751003-6.028717-6.7476082-9.8181534-9.0603313-3.8072968-2.2985239-8.0435486-3.7682467-12.3538437-4.4066124-8.6472282-1.2573748-17.4721947,1.0245171-24.2453346,5.9613895-6.820652,4.893486-11.5588856,12.2921658-13.1721821,20.3942184-1.6493778,8.093689-.1554756,16.7542686,4.2420254,23.9117279,4.3333817,7.1797066,11.597599,12.7008476,20.0618553,14.8853874,4.2240257,1.0769196,8.7017899,1.3620987,13.1024666.709343,4.3898773-.6688004,8.7093582-2.1889343,12.5598526-4.5627823,3.8484726-2.3703766,7.2263107-5.5567017,9.8325653-9.3018341,2.6189957-3.740509,4.4277496-8.0438423,5.3557129-12.5278549Z"/>
  <g>
    <path class="cls-3" d="M164.1855469,15.6944267h-4.6845703v9.6503906h-2.3203125v-15.6621094h7.0048828v6.0117188ZM162.0234375,12.1875908v-1.0986328h-2.5224609v1.0986328h2.5224609ZM162.0234375,14.3497001v-1.1337891h-2.5224609v1.1337891h2.5224609ZM163.9921875,21.222747c-.1582031.8496094-.4438477,1.5791016-.8569336,2.1884766s-1.0532227,1.1894531-1.9204102,1.7402344l-1.2392578-1.3886719c.9902344-.6855469,1.6054688-1.5322266,1.8457031-2.5400391h-1.8105469v-1.6699219h1.9775391v-1.4414062h-1.6347656v-1.5996094h9.0527344v1.5996094h-1.5292969v1.4414062h1.9248047v1.6699219h-1.9248047v3.7089844h-2.1445312v-3.7089844h-1.7402344ZM164.1503906,19.5528251h1.5820312v-1.4414062h-1.5820312v1.4414062ZM172.7373047,23.5782158c0,.4570312-.1933594.8393555-.5800781,1.1469727s-.8496094.4614258-1.3886719.4614258h-2.0478516l-.2373047-2.0039062h1.3886719c.140625,0,.2680664-.0483398.3823242-.1450195s.1713867-.215332.1713867-.355957v-6.9873047h-4.8515625v-6.0117188h7.1630859v13.8955078ZM167.7626953,12.1875908h2.6630859v-1.0986328h-2.6630859v1.0986328ZM170.4257812,13.2159111h-2.6630859v1.1337891h2.6630859v-1.1337891Z"/>
    <path class="cls-3" d="M181.8076172,20.4141533c-.5273438,2.5429688-2.5371094,4.1806641-6.0292969,4.9130859l-.7910156-1.9951172c2.4316406-.5039062,3.8847656-1.4765625,4.359375-2.9179688h-4.1835938v-1.9599609h4.4472656v-1.7138672h-1.2744141v-.9492188c-1.0195312.6152344-2.0888672,1.1484375-3.2080078,1.5996094l-1.0810547-1.8017578c.8789062-.328125,1.7402344-.7558594,2.5839844-1.2832031l-1.7226562-1.3798828,1.3535156-1.3886719h-.7558594v-1.8720703h8.5869141c.2226562.3984375.5888672.8701172,1.0986328,1.4150391,1.0605469-.703125,1.828125-1.2949219,2.3027344-1.7753906l1.5996094,1.3535156c-.4863281.4511719-1.2978516,1.0429688-2.4345703,1.7753906.3105469.2460938.5742188.4511719.7910156.6152344,1.0253906-.703125,1.8369141-1.3388672,2.4345703-1.9072266l1.5732422,1.4414062c-.6796875.5390625-1.4121094,1.0693359-2.1972656,1.5908203.8027344.421875,1.6904297.796875,2.6630859,1.125l-1.4238281,1.9511719c-.8671875-.328125-1.8164062-.8056641-2.8476562-1.4326172v.9228516h-1.4765625v1.7138672h4.6142578v1.9599609h-4.6142578v2.1621094c0,.1933594.0717773.3222656.215332.3867188s.4643555.0966797.9624023.0966797c.6503906,0,1.0297852-.0541992,1.1381836-.1625977s.1713867-.7983398.1889648-2.0698242l2.0390625.2724609v2.1357422c0,.4511719-.1142578.8188477-.3427734,1.1030273s-.5668945.4833984-1.0151367.5976562-1.2202148.1713867-2.315918.1713867c-1.4589844,0-2.3671875-.1743164-2.7246094-.5229492s-.5361328-.8510742-.5361328-1.5073242v-2.6630859h-1.9775391ZM176.5429688,11.5372001l1.96875,1.4765625c.6269531-.4746094,1.1865234-.9667969,1.6787109-1.4765625h-3.6474609ZM179.8037109,14.8155205h6.3457031c-1.3007812-.9492188-2.3701172-1.9394531-3.2080078-2.9707031-.7441406.9609375-1.7900391,1.9511719-3.1376953,2.9707031ZM181.9658203,16.7403251v1.7138672h1.8193359v-1.7138672h-1.8193359Z"/>
    <path class="cls-3" d="M209.6162109,23.4375908l-1.9775391,1.8896484c-1.0371094-1.1308594-3.0410156-2.9736328-6.0117188-5.5283203-2.6015625,2.5136719-5.34375,4.3740234-8.2265625,5.5810547l-1.2832031-2.0742188c2.2382812-.9550781,4.4194336-2.3671875,6.543457-4.2363281s3.6928711-3.9199219,4.706543-6.1523438l-8.9033203-.0087891v-2.3027344h11.5488281l.7207031.6943359c-.421875,1.4941406-.9008789,2.7172852-1.4370117,3.6694336s-1.2143555,1.9379883-2.034668,2.9575195c2.53125,2.0566406,4.6494141,3.8935547,6.3544922,5.5107422Z"/>
    <path class="cls-3" d="M226.5527344,11.2823173l-.1230469,1.6787109c-.2402344,3.2871094-1.3476562,5.9428711-3.3222656,7.9672852s-4.9482422,3.4790039-8.9208984,4.3637695l-.84375-2.3466797c2.8242188-.5332031,5.0927734-1.5410156,6.8066406-3.0234375s2.8408203-3.6005859,3.3798828-6.3544922h-5.7304688c-1.5,2.390625-3.4599609,4.2949219-5.8798828,5.7128906l-1.4589844-1.8544922c3.2050781-2.0566406,5.3173828-4.7753906,6.3369141-8.15625l2.7333984.3076172c-.2226562.6679688-.4277344,1.2363281-.6152344,1.7050781h7.6376953Z"/>
    <path class="cls-3" d="M245.1064453,18.8584892h-16.1455078v-2.3378906h16.1455078v2.3378906Z"/>
    <path class="cls-3" d="M252.65625,15.2989189c.0117188,2.7539062-.4423828,4.9116211-1.3623047,6.4731445s-2.3320312,2.7875977-4.2363281,3.6782227l-1.0283203-2.1445312c1.2832031-.6269531,2.2705078-1.5571289,2.9619141-2.7905273s1.0371094-3.1098633,1.0371094-5.6293945v-4.1396484h2.6279297v4.5527344ZM263.9589844,18.128997c-.8496094,1.78125-1.9853516,3.2856445-3.40625,4.5131836s-3.0039062,2.0551758-4.75,2.4829102l-1.0458984-.8613281v-14.0361328h2.6279297v11.4697266c1.7988281-.8847656,3.3105469-2.6044922,4.5351562-5.1591797l2.0390625,1.5908203Z"/>
  </g>
  <g>
    <path class="cls-3" d="M126.1435547,12.0894462l-4.5917969,12.6035156h-3.6547852l-2.9350586-8.7685547-2.9526367,8.7685547h-3.6191406l-4.609375-12.6035156h3.7631836l2.7548828,8.6601562,3.0068359-8.6601562h3.3847656l3.0068359,8.6601562,2.7548828-8.6601562h3.6914062Z"/>
    <path class="cls-3" d="M133.8603516,22.5865165c1.5849609,0,2.5390625-.378418,3.5292969-1.1347656l1.8007812,1.890625c-1.4228516,1.2607422-3.2592773,1.7646484-5.527832,1.7646484-4.2314453,0-6.6982422-2.0527344-6.6982422-5.4013672,0-3.3491211,2.4311523-5.4018555,6.4282227-5.4018555,3.6010742,0,6.1577148,1.8007812,6.1577148,5.3295898,0,.3959961-.0180664.6303711-.0898438.828125h-9.1108398c.2880859,1.5126953,1.4941406,2.125,3.5107422,2.125ZM130.4394531,18.5533134l5.8339844-.0361328c-.378418-1.1704102-1.3325195-1.7285156-2.8447266-1.7285156-1.5307617,0-2.5927734.5581055-2.9892578,1.7646484Z"/>
    <path class="cls-3" d="M154.3461914,19.7056572c0,3.2949219-2.1606445,5.3652344-5.293457,5.3652344-1.8183594,0-3.2226562-.7202148-4.1049805-1.8364258v1.4584961h-3.5473633v-13.3242188h3.5473633v4.8076172c.8823242-1.1162109,2.2866211-1.8183594,4.1049805-1.8183594,3.1328125,0,5.293457,2.0527344,5.293457,5.3476562ZM150.9794922,19.7056572c0-1.6567383-1.0444336-2.6289062-2.9169922-2.6289062-1.206543,0-2.3046875.3959961-3.0966797,1.4223633v2.4125977c.7919922,1.0263672,1.8901367,1.4223633,3.0966797,1.4223633,1.8725586,0,2.9169922-.9541016,2.9169922-2.628418Z"/>
  </g>
  <g>
    <path class="cls-3" d="M124.3188477,61.2090751v4.9677734h-21.8579102v-25.1972656h5.3393555v20.2294922h16.5185547Z"/>
    <path class="cls-3" d="M126.5512695,53.5782158c0-8.4228516,5.7397461-13.390625,14.8500977-13.390625s14.8500977,4.9677734,14.8500977,13.390625-5.7397461,13.390625-14.8500977,13.390625-14.8500977-4.9677734-14.8500977-13.390625ZM150.8120117,53.5782158c0-5.3994141-3.6376953-8.4228516-9.4106445-8.4228516-5.7734375,0-9.4106445,3.0234375-9.4106445,8.4228516s3.6040039,8.4228516,9.4106445,8.4228516c5.7729492,0,9.4106445-3.0234375,9.4106445-8.4228516Z"/>
    <path class="cls-3" d="M180.3071289,60.8497001h-14.1162109l-2.5029297,5.3271484h-5.7060547l12.3803711-25.1972656h5.8398438l12.3808594,25.1972656h-5.7734375l-2.5024414-5.3271484ZM178.0712891,56.1700126l-4.8388672-10.2587891-4.8388672,10.2587891h9.6777344Z"/>
    <path class="cls-3" d="M218.6123047,53.5782158c0,7.8466797-5.6396484,12.5986328-14.449707,12.5986328h-12.4140625v-25.1972656h12.4140625c8.8100586,0,14.449707,4.7519531,14.449707,12.5986328ZM213.1728516,53.5782158c0-5.1835938-3.8041992-7.703125-9.4106445-7.703125h-6.6743164v15.40625h6.6743164c5.6064453,0,9.4106445-2.5195312,9.4106445-7.703125Z"/>
    <path class="cls-3" d="M257.4169922,58.5459892c0,4.9667969-4.3720703,8.4228516-12.6474609,8.4228516-5.9072266,0-10.7119141-1.7998047-14.2832031-5.0761719l3.0703125-3.9228516c2.8701172,2.84375,6.5742188,4.1757812,11.3457031,4.1757812,4.7392578,0,7.1416016-.9726562,7.1416016-3.0605469,0-2.0869141-2.4023438-2.6630859-7.7753906-3.1669922-6.6738281-.6123047-12.8808594-2.1962891-12.8808594-7.5947266,0-5.2558594,5.2060547-8.1357422,12.4140625-8.1357422,5.1054688,0,9.5107422,1.3681641,12.4804688,3.8515625l-2.9365234,3.9960938c-2.5693359-2.1240234-5.7402344-2.9882812-9.5439453-3.0244141-3.1708984-.0351562-7.0419922.5761719-7.0419922,2.8798828,0,2.1601562,3.3378906,2.3759766,7.9765625,2.7714844,7.4414062.6484375,12.6806641,2.3398438,12.6806641,7.8837891Z"/>
    <path class="cls-3" d="M282.2070312,66.1768486l-9.0107422-11.8427734-6.1064453,5.5791016v6.2636719h-5.3398438v-25.1972656h5.3398438v12.7783203l13.8818359-12.7783203h7.0078125l-10.8789062,9.9345703,11.5136719,15.2626953h-6.4072266Z"/>
    <path class="cls-3" d="M291.6123047,66.1768486v-25.1972656h5.3398438v25.1972656h-5.3398438Z"/>
    <path class="cls-3" d="M325.0820312,61.2090751v4.9677734h-21.8583984v-25.1972656h5.3398438v20.2294922h16.5185547Z"/>
    <path class="cls-3" d="M350.6738281,61.2090751v4.9677734h-21.8583984v-25.1972656h5.3398438v20.2294922h16.5185547Z"/>
  </g>
</svg>